<svg class="typst-doc" viewBox="0 0 56 26" width="56pt" height="26pt" xmlns="http://www.w3.org/2000/svg" xmlns:xlink="http://www.w3.org/1999/xlink" xmlns:h5="http://www.w3.org/1999/xhtml">
    <g>
        <g transform="translate(2 2)">
            <g class="typst-group">
                <g>
                    <g transform="translate(-0 -0)">
                        <path class="typst-shape" fill="none" stroke="#777777" stroke-width="0.5" stroke-linecap="butt" stroke-linejoin="miter" stroke-miterlimit="4" d="M 5.25 0 L 46.75 0 C 49.649494 0 52 2.350505 52 5.25 L 52 16.75 C 52 19.649494 49.649494 22 46.75 22 L 5.25 22 C 2.350505 22 0 19.649494 0 16.75 L 0 5.25 C 0 2.350505 2.350505 0 5.25 0 "/>
                    </g>
                    <g transform="translate(11 11)">
                        <g class="typst-group">
                            <g>
                                <g transform="translate(0 0)">
                                    <g class="typst-group">
                                        <g>
                                            <g transform="translate(0 0)">
                                                <path class="typst-shape" fill="none" stroke="#ffffff" stroke-width="1" stroke-linecap="butt" stroke-linejoin="miter" stroke-miterlimit="4" d="M 0 0 L 25.5 0 "/>
                                            </g>
                                            <g transform="translate(30 0)">
                                                <g class="typst-group">
                                                    <g>
                                                        <g transform="translate(0 0)">
                                                            <path class="typst-shape" fill="none" stroke="#ffffff" stroke-width="1" stroke-linecap="butt" stroke-linejoin="miter" stroke-miterlimit="4" d="M 0 -3 C 0 -3 0 3 0 3 "/>
                                                        </g>
                                                        <g transform="translate(0 0)">
                                                            <path class="typst-shape" fill="#ffffff" fill-rule="nonzero" d="M 0 0 C 0 0 -7.5 3 -7.5 3 C -7.5 3 -4.5 0 -4.5 0 C -4.5 0 -7.5 -3 -7.5 -3 C -7.5 -3 0 0 0 0 Z "/>
                                                        </g>
                                                    </g>
                                                </g>
                                            </g>
                                        </g>
                                    </g>
                                </g>
                            </g>
                        </g>
                    </g>
                </g>
            </g>
        </g>
    </g>
</svg>
