<svg class="typst-doc" viewBox="0 0 56 59.199999999999996" width="56pt" height="59.199999999999996pt" xmlns="http://www.w3.org/2000/svg" xmlns:xlink="http://www.w3.org/1999/xlink" xmlns:h5="http://www.w3.org/1999/xhtml">
    <g>
        <g transform="translate(2 2)">
            <g class="typst-group">
                <g>
                    <g transform="translate(-0 -0)">
                        <path class="typst-shape" fill="none" stroke="#777777" stroke-width="0.5" stroke-linecap="butt" stroke-linejoin="miter" stroke-miterlimit="4" d="M 5.25 0 L 46.75 0 C 49.649494 0 52 2.350505 52 5.25 L 52 49.95 C 52 52.849495 49.649494 55.2 46.75 55.2 L 5.25 55.2 C 2.350505 55.2 0 52.849495 0 49.95 L 0 5.25 C 0 2.350505 2.350505 0 5.25 0 "/>
                    </g>
                    <g transform="translate(11 11)">
                        <g class="typst-group">
                            <g>
                                <g transform="translate(0 0)">
                                    <g class="typst-group">
                                        <g>
                                            <g transform="translate(3.75 0)">
                                                <path class="typst-shape" fill="none" stroke="#ffffff" stroke-width="1" stroke-linecap="butt" stroke-linejoin="miter" stroke-miterlimit="4" d="M 0 0 L 21.75 0 "/>
                                            </g>
                                            <g transform="translate(30 0)">
                                                <g class="typst-group">
                                                    <g>
                                                        <g transform="translate(0 0)">
                                                            <path class="typst-shape" fill="#ffffff" fill-rule="nonzero" d="M 0 0 C 0 0 -7.5 3 -7.5 3 C -7.5 3 -4.5 0 -4.5 0 C -4.5 0 -7.5 -3 -7.5 -3 C -7.5 -3 0 0 0 0 Z "/>
                                                        </g>
                                                    </g>
                                                </g>
                                            </g>
                                            <g transform="translate(0 0)">
                                                <g class="typst-group">
                                                    <g>
                                                        <g transform="translate(0 0)">
                                                            <g class="typst-group">
                                                                <g transform="matrix(-1 0 0 1 0 0)">
                                                                    <g transform="translate(0 0)">
                                                                        <g class="typst-group">
                                                                            <g transform="matrix(-1 0 0 1 0 0)">
                                                                                <g transform="translate(7.5 0)">
                                                                                    <path class="typst-shape" fill="#ffffff" fill-rule="nonzero" d="M 0 0 C 0 0 -7.5 3 -7.5 3 C -7.5 3 -4.5 0 -4.5 0 C -4.5 0 -7.5 -3 -7.5 -3 C -7.5 -3 0 0 0 0 Z "/>
                                                                                </g>
                                                                            </g>
                                                                        </g>
                                                                    </g>
                                                                </g>
                                                            </g>
                                                        </g>
                                                    </g>
                                                </g>
                                            </g>
                                        </g>
                                    </g>
                                </g>
                                <g transform="translate(5 13.2)">
                                    <g class="typst-group">
                                        <g>
                                            <g transform="translate(0 0)">
                                                <path class="typst-shape" fill="none" stroke="#ffffff" stroke-width="1" stroke-linecap="butt" stroke-linejoin="miter" stroke-miterlimit="4" d="M 0 0 C 10 0 20 0 20 10 C 20 20 7.5 20 7.5 20 "/>
                                            </g>
                                            <g transform="translate(0 0)">
                                                <g class="typst-group">
                                                    <g transform="matrix(-1 0.00000000000000012246467991473532 -0.00000000000000012246467991473532 -1 0 0)">
                                                        <g transform="translate(0 0)">
                                                            <path class="typst-shape" fill="none" stroke="#ffffff" stroke-width="1" stroke-linecap="butt" stroke-linejoin="miter" stroke-miterlimit="4" d="M 0 -3 C 0 -3 0 3 0 3 "/>
                                                        </g>
                                                    </g>
                                                </g>
                                            </g>
                                            <g transform="translate(0 20)">
                                                <g class="typst-group">
                                                    <g transform="matrix(-1 0.00000000000000012246467991473532 -0.00000000000000012246467991473532 -1 0 0)">
                                                        <g transform="translate(0 0)">
                                                            <path class="typst-shape" fill="#ffffff" fill-rule="nonzero" d="M 0 0 C 0 0 -7.5 3 -7.5 3 C -7.5 3 -7.5 0 -7.5 0 C -7.5 0 -7.5 -3 -7.5 -3 C -7.5 -3 0 0 0 0 Z "/>
                                                        </g>
                                                    </g>
                                                </g>
                                            </g>
                                        </g>
                                    </g>
                                </g>
                            </g>
                        </g>
                    </g>
                </g>
            </g>
        </g>
    </g>
</svg>
